<svg width="2111" height="2818" viewBox="0 0 2111 2818" fill="none" xmlns="http://www.w3.org/2000/svg">
<path d="M652.881 1756.34C654.567 1803.44 659.621 1837.11 669.272 1865.52C708.006 1973.68 850.226 2049.47 1031.6 2058.6C1122.3 2062.41 1206.63 2045.62 1275.47 2010.05C1335.43 1978.49 1392.48 1927.08 1454.98 1848.25C1497.65 1793.79 1534.41 1730.95 1570.66 1650.5C1607.07 1568.92 1623.35 1504.29 1623.43 1440.97C1623.41 1438.09 1623.35 1435.21 1623.24 1432.18C1620.67 1360.21 1593.53 1246.93 1550.65 1129.17C1507.07 1009.47 1455.12 908.003 1411.66 857.743C1332.74 720.04 1261.09 741.06 1152.64 772.867C1104.53 786.98 1050.01 802.967 983.658 809.364C935.777 813.968 892.995 817.349 855.246 820.331C673.974 834.645 591.239 841.171 503.168 941.011C482.766 965.267 473.117 997.058 474.492 1035.48C475.576 1065.77 483.508 1100.44 498.07 1138.53C511.41 1173.09 527.794 1208.65 545.142 1246.3C567.96 1295.81 591.555 1347.02 611.674 1403.13C635.328 1469.92 648.297 1543.52 651.326 1628.13C651.775 1640.69 652.018 1653.87 652.049 1667.3C652.061 1673.34 652.062 1679.33 652.065 1685.26C652.067 1710.16 652.07 1733.68 652.881 1756.34ZM1624.26 1432.13C1624.37 1435.19 1624.43 1438.08 1624.46 1440.98C1624.37 1504.54 1608.05 1569.36 1571.55 1651.15C1535.25 1731.7 1498.44 1794.62 1455.71 1849.16C1393.11 1928.12 1335.96 1979.62 1275.87 2011.24C1206.89 2046.88 1122.42 2063.7 1031.57 2059.89C849.811 2050.74 707.235 1974.64 668.34 1866.03C658.632 1837.46 653.553 1803.65 651.862 1756.39C651.049 1733.69 651.046 1710.16 651.043 1685.24C651.044 1679.31 651.044 1673.33 651.03 1667.29C650.997 1653.88 650.755 1640.72 650.306 1628.17C647.283 1543.72 634.344 1470.28 610.746 1403.64C590.647 1347.6 567.068 1296.43 544.263 1246.93C526.903 1209.26 510.509 1173.69 497.155 1139.08C482.529 1100.82 474.563 1065.98 473.473 1035.52C472.084 996.71 481.84 964.595 502.474 940.06C545.298 891.511 587.374 863.805 643.178 847.419C697.358 831.504 763.553 826.278 855.169 819.043C892.914 816.061 935.696 812.686 983.57 808.075C1049.84 801.693 1104.33 785.71 1152.4 771.611C1208.38 755.194 1252.59 742.221 1293.93 750.29C1338.62 759.006 1375.16 791.887 1412.42 856.904C1455.9 907.167 1507.95 1008.79 1551.58 1128.64C1594.51 1246.55 1621.68 1360.01 1624.26 1432.13Z" fill="#EDE9F7"/>
<path d="M1612.25 1433.36C1612.21 1431.65 1612.16 1429.96 1612.1 1428.22C1609.64 1359.46 1583.22 1250.37 1541.42 1136.42C1498.89 1020.44 1448.17 921.779 1405.73 872.48C1328.78 738.764 1258.83 757.629 1152.95 786.191C1107.17 798.538 1055.27 812.533 992.544 817.763C946.823 821.719 905.858 824.555 869.717 827.059C694.393 839.201 614.373 844.743 528.568 940.246C506.396 965.388 495.903 999.122 497.385 1040.53C498.378 1068.29 504.777 1099.68 516.404 1133.81C529.125 1175.96 546.443 1219.84 564.779 1266.3C582.009 1309.95 599.825 1355.09 615.697 1403.36C648.011 1503.57 655.445 1601.29 658.225 1666.07L658.511 1677.51C658.86 1691.38 659.188 1704.5 659.655 1717.54C661.64 1773 665.952 1818 680.555 1857.31C719.629 1961.16 857.492 2035.39 1031.77 2046.39C1120.97 2052.61 1203.54 2038.55 1270.54 2005.73C1329.93 1976.28 1386.25 1926.9 1447.78 1850.33C1492.83 1794.52 1530.41 1729.61 1566.03 1646.02C1600.34 1564.62 1614.61 1499.25 1612.27 1434.07L1612.25 1433.36ZM1613.12 1428.17C1613.19 1429.92 1613.24 1431.63 1613.26 1433.33L1613.29 1434.03C1615.63 1499.45 1601.33 1565.02 1566.93 1646.64C1531.26 1730.34 1493.62 1795.36 1448.5 1851.25C1386.87 1927.94 1330.45 1977.41 1270.92 2006.93C1203.79 2039.82 1121.08 2053.91 1031.73 2047.67C857.077 2036.65 718.869 1962.14 679.63 1857.84C664.959 1818.34 660.623 1773.2 658.633 1717.58C658.166 1704.53 657.84 1691.41 657.49 1677.53L657.203 1666.11C654.427 1601.44 647.007 1503.87 614.757 1403.84C598.895 1355.61 581.089 1310.49 563.868 1266.86C545.52 1220.38 528.191 1176.47 515.461 1134.28C503.792 1100.03 497.366 1068.5 496.367 1040.57C494.872 998.772 505.473 964.689 527.887 939.288C613.954 843.481 694.083 837.931 869.649 825.772C905.788 823.268 946.746 820.433 992.467 816.479C1055.12 811.258 1106.98 797.269 1152.73 784.93C1207.38 770.188 1250.54 758.545 1290.89 767.052C1334.51 776.248 1370.16 808.507 1406.48 871.635C1448.95 920.946 1499.76 1019.78 1542.35 1135.89C1584.2 1249.99 1610.66 1359.26 1613.12 1428.17Z" fill="#EDE9F7"/>
<path d="M520.331 1045.99C521.226 1071 526.195 1098.87 535.093 1128.82C546.462 1180.29 564.681 1234.58 583.971 1292.06C596.009 1327.93 608.457 1365.02 620.038 1403.74C647.829 1499.24 658.209 1589.6 664.699 1665.4L664.929 1669.84C668.486 1739.18 671.561 1799.06 692.135 1849.95C731.532 1949.69 864.945 2022.47 1032.03 2035.36C1120.92 2044.17 1199.48 2033.13 1265.52 2002.55C1323.48 1975.57 1380.66 1926.76 1440.35 1853.33C1487.11 1796.9 1526.6 1727.83 1561.06 1642.17C1593.37 1560.91 1605.83 1492.88 1600.69 1426.05L1600.64 1424.55C1598.29 1358.9 1572.58 1253.84 1531.88 1143.52C1490.41 1031.09 1440.92 935.053 1399.52 886.61C1324.58 756.635 1256.35 773.353 1153.08 798.661C1109.67 809.295 1060.48 821.345 1001.44 825.448C957.964 828.749 918.898 831.043 884.431 833.07C715.084 843.028 637.793 847.57 554.292 938.925C530.152 965.053 518.725 1001.08 520.331 1045.99ZM1602.57 1441.41C1604.79 1503.52 1591.89 1567.5 1561.97 1642.76C1527.46 1728.55 1487.91 1797.73 1441.07 1854.26C1381.28 1927.82 1323.97 1976.72 1265.89 2003.76C1199.7 2034.41 1121 2045.47 1031.98 2036.64C949.559 2030.28 874.009 2009.45 813.496 1976.4C752.979 1943.35 710.697 1899.82 691.227 1850.52C670.557 1799.39 667.478 1739.39 663.91 1669.91L663.684 1665.5C657.203 1589.81 646.835 1499.54 619.084 1404.18C607.511 1365.5 595.067 1328.41 583.029 1292.54C563.729 1235.03 545.496 1180.7 534.126 1129.2C525.201 1099.18 520.212 1071.18 519.312 1046.03C517.691 1000.7 529.234 964.335 553.621 937.944C637.383 846.307 714.783 841.757 884.369 831.79C918.835 829.76 957.898 827.467 1001.37 824.161C1060.34 820.066 1109.5 808.027 1152.87 797.392C1206.17 784.334 1248.27 774.018 1287.62 783.002C1330.15 792.706 1364.9 824.402 1400.28 885.766C1441.7 934.22 1491.27 1030.41 1532.81 1142.99C1573.56 1253.46 1599.3 1358.7 1601.66 1424.5L1601.71 1425.97C1602.1 1431.07 1602.39 1436.27 1602.57 1441.41Z" fill="#EDE9F7"/>
<path d="M543.318 1053.1C544.099 1074.93 547.753 1098.89 554.179 1124.29C563.205 1187.04 582.384 1254.21 602.689 1325.33C609.972 1350.82 617.5 1377.19 624.768 1404.07C650.359 1502.12 662.6 1595.78 671.541 1664.18C676.686 1729.15 681.539 1790.48 704.062 1841.7C723.617 1888.72 764.689 1930.55 822.845 1962.7C881.119 1994.91 953.647 2015.78 1032.59 2023.06C1119.89 2034.38 1196.67 2025.99 1260.79 1998.14C1318.1 1973.3 1374.49 1926.6 1433.2 1855.36C1482.3 1797.65 1522.58 1726.46 1556.36 1637.73C1582.59 1567.96 1593.82 1508 1591.71 1449.03C1591.35 1438.92 1590.58 1428.67 1589.41 1418.57C1586.66 1355.6 1561.48 1254.97 1522.05 1149.32C1481.17 1039.79 1434.37 949.498 1393.65 901.592C1320.69 775.571 1254.17 790.083 1153.47 812.05C1112.48 820.992 1066.02 831.128 1010.69 834.125C969.546 836.775 932.435 838.528 899.692 840.081C736.238 847.82 661.636 851.351 580.414 938.42C554.045 965.585 541.568 1004.17 543.318 1053.1ZM1592.73 1448.98C1594.85 1508.17 1583.58 1568.33 1557.28 1638.3C1523.45 1727.18 1483.09 1798.48 1433.9 1856.3C1375.09 1927.66 1318.58 1974.46 1261.13 1999.36C1196.87 2027.27 1119.95 2035.67 1032.52 2024.34C953.47 2017.05 880.825 1996.15 822.445 1963.88C764.072 1931.61 722.828 1889.57 703.167 1842.3C680.546 1790.86 675.682 1729.4 670.532 1664.33C661.602 1596.02 649.363 1502.41 623.802 1404.46C616.539 1377.6 609.011 1351.24 601.731 1325.75C581.411 1254.58 562.218 1187.36 553.192 1124.59C546.756 1099.16 543.085 1075.09 542.3 1053.15C540.535 1003.79 553.136 964.855 579.755 937.426C661.237 850.089 735.948 846.546 899.641 838.795C932.383 837.247 969.487 835.491 1010.63 832.844C1065.9 829.845 1112.33 819.718 1153.29 810.784C1205.26 799.451 1246.31 790.491 1284.66 799.942C1326.12 810.158 1359.97 841.252 1394.4 900.747C1435.15 948.671 1482.03 1039.11 1522.97 1148.79C1562.45 1254.57 1587.67 1355.39 1590.43 1418.45C1591.59 1428.54 1592.37 1438.83 1592.73 1448.98Z" fill="#EDE9F7"/>
<path d="M564.586 1061.01C565.237 1079.21 567.725 1098.86 571.982 1119.41C577.369 1196.14 597.812 1279.61 619.454 1367.96C622.394 1379.96 625.36 1392.06 628.319 1404.28C645.599 1478.79 657.558 1548.64 668.108 1610.27C671.28 1628.82 674.281 1646.33 677.268 1663.07C684.644 1730.57 692.091 1785.96 714.915 1833.76C734.693 1878.81 774.799 1919.21 830.9 1950.6C887.139 1982.07 956.872 2003.04 1032.57 2011.23C1118.42 2025.09 1193.53 2019.35 1255.81 1994.17C1312.54 1971.46 1368.23 1926.81 1426.05 1857.67C1476.87 1799.46 1519.19 1724 1551.86 1633.38C1574.91 1568.6 1584.72 1512.42 1582.72 1456.57C1582.18 1441.46 1580.72 1426.12 1578.39 1410.97C1574.89 1350.31 1550.06 1254.13 1511.96 1153.61C1472.33 1049.07 1427.06 962.432 1387.75 915.929C1316.64 793.701 1251.69 805.987 1153.37 824.596C1114.77 831.904 1071.02 840.183 1019.34 842.124C980.546 844.122 945.4 845.353 914.392 846.429C756.474 851.941 684.404 854.457 605.29 937.348C576.356 965.701 562.665 1007.3 564.586 1061.01ZM1583.74 1456.52C1585.74 1512.58 1575.91 1568.95 1552.79 1633.92C1520.06 1724.71 1477.65 1800.3 1426.75 1858.61C1368.82 1927.88 1313.01 1972.63 1256.13 1995.39C1193.71 2020.63 1118.46 2026.39 1032.47 2012.51C956.686 2004.3 886.835 1983.3 830.498 1951.77C774.186 1920.26 733.912 1879.67 714.036 1834.39C691.119 1786.4 683.648 1730.87 676.266 1663.29C673.286 1646.59 670.285 1629.08 667.11 1610.53C656.565 1548.92 644.609 1479.09 627.342 1404.63C624.384 1392.43 621.42 1380.32 618.482 1368.33C596.822 1279.91 576.363 1196.38 570.982 1119.61C566.719 1099.09 564.221 1079.34 563.567 1061.05C561.631 1006.91 575.452 964.952 604.645 936.344C684.011 853.181 756.194 850.667 914.351 845.153C945.357 844.067 980.499 842.846 1019.29 840.841C1070.92 838.897 1114.64 830.629 1153.21 823.323C1203.95 813.722 1244.03 806.14 1281.46 816.089C1321.93 826.847 1354.94 857.373 1388.5 915.087C1427.84 961.612 1473.19 1048.38 1512.87 1153.07C1551.03 1253.72 1575.89 1350.08 1579.4 1410.82C1581.73 1425.95 1583.2 1441.36 1583.74 1456.52Z" fill="#EDE9F7"/>
<path d="M591.652 1137.24C594.543 1218.11 612.197 1306.02 633.24 1404.28C641.413 1444.52 648.661 1482.72 655.668 1519.67C665.487 1571.43 674.766 1620.33 684.285 1661.99C692.971 1723.29 702.173 1777.89 726.999 1825.98C746.963 1869.11 786.021 1908.11 839.965 1938.78C894.053 1969.54 960.854 1990.62 1033.15 1999.77C1117.38 2016.22 1190.66 2013.12 1250.98 1990.55C1307 1970 1361.86 1927.37 1418.69 1860.25C1471.8 1800.71 1514.91 1722.95 1546.86 1629.13C1566.78 1569.82 1575.56 1515.74 1573.71 1463.83C1572.99 1443.84 1570.67 1423.47 1566.8 1403.29C1558.18 1285.03 1465.05 1029.32 1381.61 929.741C1312.46 811.141 1249.17 821.173 1153.37 836.353C1117.28 842.079 1076.38 848.561 1028.5 849.485C992.218 850.85 959.183 851.545 930.038 852.166C777.851 855.387 708.391 856.853 631.522 935.686C599.714 965.356 584.674 1010.52 586.798 1069.93C587.298 1083.93 588.791 1098.78 591.228 1114.07C591.234 1121.67 591.373 1129.43 591.652 1137.24ZM1574.73 1463.78C1576.59 1515.9 1567.78 1570.15 1547.8 1629.65C1515.79 1723.65 1472.59 1801.55 1419.38 1861.21C1362.44 1928.46 1307.46 1971.18 1251.28 1991.79C1190.81 2014.41 1117.38 2017.52 1033.03 2001.04C960.656 1991.89 893.745 1970.76 839.555 1939.95C785.416 1909.17 746.195 1869.98 726.134 1826.64C701.216 1778.38 691.989 1723.64 683.293 1662.26C673.78 1620.64 664.503 1571.73 654.677 1519.95C647.67 1483.01 640.422 1444.81 632.254 1404.59C611.201 1306.27 593.533 1218.28 590.637 1137.28C590.357 1129.45 590.218 1121.68 590.222 1114.17C587.78 1098.95 586.285 1084.03 585.783 1069.97C583.643 1010.11 598.817 964.587 630.89 934.664C668.123 896.483 704.688 875.433 753.141 864.3C799.512 853.641 854.248 852.478 930.007 850.877C959.15 850.261 992.183 849.561 1028.46 848.203C1076.29 847.272 1117.17 840.795 1153.23 835.08C1202.68 827.248 1241.73 821.053 1278.18 831.539C1317.59 842.881 1349.72 872.905 1382.37 928.896C1420.22 974.065 1463.97 1057.25 1502.32 1157.05C1539.06 1252.64 1563.54 1344.63 1567.8 1403.1C1571.67 1423.26 1574.01 1443.71 1574.73 1463.78Z" fill="#EDE9F7"/>
<path d="M608.24 1181.78C610.952 1257.66 624.265 1337.08 636.929 1404.76C652.866 1495.5 670.098 1590.04 690.121 1661.02C701.607 1725.73 713.604 1774.54 737.949 1818.08C779.259 1902.33 892.348 1967.39 1033.1 1987.91C1115.85 2006.96 1187.43 2006.49 1245.88 1986.54C1301.28 1968.18 1355.4 1927.63 1411.36 1862.58C1466.08 1802.64 1511.29 1720.47 1542.12 1624.94C1559.62 1569.93 1567.28 1519.53 1565.54 1470.85C1564.65 1445.88 1561.37 1421.39 1555.53 1395.97C1550.5 1339.89 1526.42 1252.57 1491.09 1162.28C1454.06 1067.64 1411.94 988.296 1375.53 944.579C1308.19 829.715 1246.41 837.432 1152.89 849.107C1119.3 853.307 1081.23 858.063 1037.13 858.038C1003.4 858.777 972.509 858.965 945.251 859.121C802.842 859.996 731.36 860.431 656.539 935.143C621.864 965.818 604.782 1016.47 607.111 1081.62C607.434 1090.66 608.13 1100.07 609.187 1109.6C607.655 1132.25 607.336 1156.48 608.24 1181.78ZM1566.56 1470.81C1568.3 1519.67 1560.62 1570.25 1543.06 1625.43C1512.17 1721.15 1466.86 1803.49 1412.04 1863.54C1355.98 1928.72 1301.71 1969.37 1246.16 1987.78C1187.56 2007.78 1115.83 2008.26 1032.96 1989.18C891.936 1968.62 778.559 1903.33 737.1 1818.78C710.031 1770.36 698.567 1714.46 689.147 1661.36C669.122 1590.38 651.88 1495.81 635.934 1405.02C623.262 1337.3 609.939 1257.82 607.223 1181.83C606.317 1156.48 606.638 1132.18 608.177 1109.62C607.118 1100.2 606.416 1090.75 606.091 1081.67C603.745 1016.05 620.977 965.023 655.924 934.109C730.996 859.152 802.594 858.714 945.234 857.844C972.489 857.679 1003.38 857.488 1037.11 856.749C1081.17 856.779 1119.21 852.026 1152.78 847.834C1201.05 841.806 1239.17 837.043 1274.73 848.075C1313.18 860.003 1344.5 889.508 1376.29 943.742C1412.72 987.472 1454.92 1066.96 1492 1161.72C1527.38 1252.13 1551.5 1339.61 1556.52 1395.74C1562.37 1421.14 1565.66 1445.74 1566.56 1470.81Z" fill="#EDE9F7"/>
<path d="M622.163 1230.15C623.986 1281.16 630.084 1338.44 640.809 1405.27C657.163 1515.21 675.269 1598.63 696.165 1660.29C708.862 1718.93 722.713 1766.89 749.117 1810.56C790.779 1890.64 899.654 1954.24 1033.28 1976.57C1114.56 1998.27 1184.44 2000.44 1241.03 1983.04C1295.78 1966.88 1349.18 1928.37 1404.27 1865.33C1476.4 1788 1516.6 1689.77 1537.62 1620.98C1553.02 1569.88 1559.71 1522.88 1558.08 1477.3C1557.03 1447.9 1552.59 1418.93 1544.5 1388.72C1532.69 1279.16 1445.81 1051.22 1369.68 959.109C1304.08 847.806 1243.74 853.153 1152.41 861.253C1121.39 864.003 1086.23 867.121 1045.96 866.204C1014.91 866.343 986.261 866.042 960.985 865.772C823.568 864.309 754.591 863.576 681.751 934.273C643.229 966.577 624.26 1022.26 626.871 1095.32C626.985 1098.5 627.143 1101.74 627.337 1104.98C622.218 1143.5 620.528 1184.4 622.163 1230.15ZM1559.1 1477.26C1560.74 1523.02 1554.02 1570.18 1538.57 1621.45C1517.51 1690.38 1477.22 1788.81 1404.94 1866.3C1349.74 1929.48 1296.2 1968.08 1241.28 1984.28C1184.55 2001.74 1114.51 1999.57 1033.12 1977.84C899.244 1955.46 790.088 1891.64 748.288 1811.3C721.805 1767.49 707.913 1719.41 695.204 1660.7C674.304 1599.03 656.177 1515.53 639.812 1405.5C629.078 1338.62 622.971 1281.27 621.145 1230.19C619.507 1184.35 621.203 1143.36 626.326 1104.9C626.126 1101.81 625.968 1098.55 625.854 1095.37C623.225 1021.83 642.347 965.762 681.152 933.231C754.24 862.29 823.331 863.022 960.981 864.486C986.253 864.753 1014.9 865.062 1045.95 864.927C1086.19 865.836 1121.33 862.721 1152.32 859.972C1243.99 851.844 1304.56 846.48 1370.43 958.27C1446.65 1050.46 1533.68 1278.8 1545.49 1388.45C1553.58 1418.65 1558.05 1447.74 1559.1 1477.26Z" fill="#EDE9F7"/>
<path d="M634.329 1277.83C635.758 1317.81 639.447 1359.58 645.603 1405.51C658.472 1510.67 677.798 1596.13 703.048 1659.52C715.242 1706.61 730.687 1756.53 761.05 1803.13C803.007 1879.13 907.511 1941.33 1033.81 1965.5C1114.62 1990.26 1180.8 1994.94 1236.2 1979.83C1290.22 1965.89 1342.79 1929.4 1396.94 1868.28C1455.48 1806.66 1503.67 1717.43 1532.66 1617.03C1546.2 1569.43 1552.05 1525.54 1550.52 1482.84C1549.32 1449.29 1543.58 1416.07 1532.97 1381.27C1519.58 1276.19 1437.14 1063.01 1363.55 973.047C1299.73 865.108 1240.85 868.013 1151.72 872.412C1123.41 873.809 1091.31 875.392 1055.01 873.669C1026.82 873.234 1000.59 872.471 977.439 871.787C845.031 867.884 778.569 865.928 707.747 932.726C656.209 973.707 645.932 1046.19 646.376 1099.79L646.362 1099.95C635.903 1153.54 631.967 1211.73 634.329 1277.83ZM1551.53 1482.8C1553.07 1525.66 1547.21 1569.72 1533.62 1617.48C1504.56 1718.09 1456.27 1807.51 1397.61 1869.26C1343.34 1930.52 1290.61 1967.1 1236.42 1981.09C1180.88 1996.24 1114.54 1991.55 1033.62 1966.76C907.103 1942.55 802.335 1880.15 760.242 1803.9C729.797 1757.17 714.308 1707.12 702.111 1659.99C676.842 1596.57 657.481 1510.98 644.599 1405.7C638.437 1359.73 634.746 1317.91 633.315 1277.87C630.95 1211.67 634.889 1153.39 645.359 1099.71C644.92 1045.79 655.296 972.91 707.163 931.661C778.231 864.635 844.809 866.596 977.45 870.499C1000.59 871.18 1026.82 871.956 1055.02 872.381C1091.3 874.11 1123.37 872.526 1151.67 871.124C1241.12 866.719 1300.22 863.8 1364.31 972.21C1437.97 1062.26 1520.56 1275.82 1533.95 1380.95C1544.57 1415.75 1550.33 1449.11 1551.53 1482.8Z" fill="#EDE9F7"/>
<path d="M642.792 1321.41C643.768 1348.72 645.859 1377.26 649.002 1406.24C658.944 1508.78 679.562 1596.16 708.624 1658.95C726.553 1717.42 745.431 1758.31 771.78 1795.74C792.619 1831.11 827.713 1864.41 873.297 1892.07C919.155 1919.9 974.617 1941.4 1033.69 1954.24C1113.05 1981.77 1177.62 1989.01 1231.15 1976.4C1284.52 1964.7 1336.39 1930.27 1389.74 1871.12C1450.67 1808.26 1499.81 1716.68 1528.12 1613.22C1540.09 1568.83 1545.22 1527.83 1543.79 1487.86C1542.46 1450.49 1535.3 1413.32 1521.91 1374.22C1506.72 1272.67 1427.93 1074.54 1357.58 987.869C1295.32 883.295 1237.67 883.666 1150.4 884.23C1124.85 884.392 1095.88 884.582 1063.58 882.165C1038.34 881.218 1015.64 880.074 993.7 878.967C865.784 872.526 801.578 869.291 732.515 932.185C680.287 971.395 666.458 1042.61 664.045 1095.44L664.022 1095.61C646.968 1162.41 639.825 1238.38 642.792 1321.41ZM1544.81 1487.82C1546.24 1527.95 1541.1 1569.11 1529.09 1613.65C1500.71 1717.33 1451.46 1809.11 1390.4 1872.11C1336.93 1931.39 1284.89 1965.93 1231.34 1977.66C1177.67 1990.31 1112.94 1983.06 1033.48 1955.5C974.362 1942.65 918.808 1921.11 872.866 1893.23C827.132 1865.47 791.906 1832.04 770.994 1796.54C744.585 1759.03 725.65 1718.03 707.711 1659.49C678.614 1596.64 657.951 1509.09 647.991 1406.39C644.847 1377.38 642.754 1348.8 641.777 1321.45C638.805 1238.3 645.957 1162.21 663.031 1095.27C665.469 1042.14 679.406 970.558 731.949 931.115C801.257 867.993 865.581 871.231 993.726 877.683C1015.67 878.791 1038.36 879.935 1063.61 880.884C1095.9 883.3 1124.84 883.11 1150.39 882.944C1237.96 882.379 1295.82 882.007 1358.34 987.03C1390.48 1026.62 1428.01 1095.24 1461.26 1175.22C1492.48 1250.33 1515.51 1324.59 1522.88 1373.86C1536.29 1412.97 1543.47 1450.29 1544.81 1487.82Z" fill="#EDE9F7"/>
<path d="M650.089 1357.01C650.668 1373.19 651.659 1389.75 653.029 1406.24C660.417 1508.64 681.77 1595.6 714.779 1657.76C733.698 1710.45 754.734 1750.53 783.028 1787.8C826.365 1856.62 920.099 1914.45 1033.8 1942.52C1111.63 1972.88 1174.51 1982.69 1226.1 1972.52C1278.76 1963.09 1329.87 1930.69 1382.36 1873.47C1445.62 1809.37 1495.65 1715.39 1523.24 1608.82C1533.84 1567.32 1538.33 1528.93 1536.99 1491.44C1535.53 1450.5 1526.86 1409.62 1510.5 1366.47C1493.83 1270.65 1417.18 1083.65 1351.43 1001.81C1290.67 900.385 1234.17 898.095 1148.65 894.648C1126.04 893.732 1100.41 892.702 1072.28 889.717C1050.22 888.334 1030.15 886.841 1010.74 885.396C891.072 876.516 825.155 871.621 757.804 930.716C704.976 968.143 687.596 1038.12 682.315 1090.24C657.439 1169.83 646.606 1259.54 650.089 1357.01ZM1538.01 1491.4C1539.36 1529.04 1534.84 1567.58 1524.21 1609.23C1496.56 1716.03 1446.41 1810.22 1383.02 1874.46C1330.39 1931.83 1279.11 1964.33 1226.27 1973.78C1174.53 1983.99 1111.49 1974.17 1033.56 1943.77C919.681 1915.65 825.717 1857.65 782.266 1788.63C753.916 1751.3 732.822 1711.11 713.893 1658.38C680.83 1596.13 659.419 1508.95 652.017 1406.36C650.644 1389.84 649.651 1373.25 649.073 1357.05C645.583 1259.4 656.438 1169.52 681.335 1089.9C686.619 1037.65 704.107 967.279 757.256 929.626C824.854 870.315 890.894 875.216 1010.78 884.115C1030.2 885.557 1050.27 887.047 1072.34 888.442C1100.45 891.423 1126.07 892.454 1148.67 893.362C1234.49 896.829 1291.18 899.12 1352.19 1000.98C1383.34 1039.74 1418.38 1103.07 1450.81 1179.23C1480.61 1249.22 1503.28 1319.07 1511.45 1366.08C1527.84 1409.24 1536.54 1450.28 1538.01 1491.4Z" fill="#EDE9F7"/>
<path d="M656.265 1386.2C656.512 1393.12 656.844 1400.15 657.25 1407.09C662.178 1509.77 684.25 1596.27 721.087 1657.24C740.683 1704.14 763.961 1743.26 794.388 1780.42C838.078 1845.11 927.605 1901.48 1033.9 1931.25C1111.22 1964.93 1170.64 1976.94 1220.96 1969.06C1272.86 1961.93 1323.18 1931.59 1374.79 1876.31C1439.42 1811.96 1491.65 1713.12 1518.11 1605.11C1527.5 1566.25 1531.45 1530.25 1530.19 1495.06C1528.59 1450.19 1518.62 1407.15 1498.84 1359.6C1480.62 1268.99 1408.01 1096.01 1345.11 1016.89C1285.73 918.435 1230.22 913.351 1146.19 905.655C1126.74 903.87 1104.7 901.849 1080.96 898.496C1062.32 896.774 1045.12 895.031 1028.49 893.337C912.743 881.576 848.989 875.092 783.207 930.441C729.848 966.037 708.916 1034.74 700.743 1086.11C667.814 1175.62 652.447 1279.35 656.265 1386.2ZM1531.21 1495.02C1532.47 1530.36 1528.51 1566.5 1519.08 1605.5C1492.56 1713.75 1440.2 1812.82 1375.44 1877.31C1323.68 1932.74 1273.19 1963.17 1221.09 1970.33C1170.62 1978.24 1111.05 1966.22 1033.64 1932.48C927.187 1902.67 837.449 1846.14 793.651 1781.29C763.176 1744.08 739.838 1704.86 720.236 1657.92C683.323 1596.83 661.174 1510.08 656.235 1407.16C655.829 1400.22 655.499 1393.18 655.251 1386.24C651.426 1279.18 666.823 1175.26 699.786 1085.71C707.96 1034.2 729.017 965.131 782.678 929.334C848.707 873.781 912.587 880.27 1028.55 892.058C1045.19 893.749 1062.39 895.5 1081.03 897.216C1104.78 900.569 1126.81 902.59 1146.25 904.373C1189.69 908.352 1223.99 911.492 1255.75 926.073C1290.04 941.816 1317.84 969.563 1345.87 1016.05C1375.55 1053.38 1409.05 1113.13 1440.16 1184.24C1468.51 1249.06 1490.8 1314.45 1499.78 1359.15C1519.6 1406.74 1529.6 1449.96 1531.21 1495.02Z" fill="#EDE9F7"/>
<path d="M660.706 1415.88C664.262 1515.41 687.006 1598.55 726.484 1656.32C746.971 1698.61 771.16 1734.48 804.966 1772.7C849.132 1833.34 934.613 1888.28 1033.67 1919.7C1109.53 1956.35 1167.39 1970.83 1215.81 1965.31C1266.33 1960.56 1317.36 1931.45 1367.52 1878.8C1434.55 1813.25 1487.76 1711.98 1513.54 1600.94C1521.9 1564.45 1525.38 1530.61 1524.19 1497.49C1522.48 1449.45 1510.89 1403.27 1487.73 1352.16C1467.23 1263.74 1399.33 1107.8 1339.07 1031.23C1280.74 935.371 1228.77 927.708 1142.68 915.01C1125.89 912.531 1108.53 909.971 1089.42 906.507C1074.47 904.624 1060.43 902.748 1046.85 900.947C934.37 885.958 872.415 877.704 807.853 929.444C753.903 963.212 729.355 1030.68 718.25 1081.35C676.519 1180.28 656.548 1293 660.45 1407.43C660.523 1410.27 660.606 1413.08 660.706 1415.88ZM1525.22 1497.44C1526.4 1530.71 1522.91 1564.69 1514.52 1601.31C1488.68 1712.6 1435.34 1814.11 1368.16 1879.81C1317.86 1932.61 1266.63 1961.81 1215.91 1966.59C1167.34 1972.13 1109.33 1957.62 1033.37 1920.92C934.19 1889.47 848.517 1834.38 804.256 1773.6C770.407 1735.34 746.158 1699.38 725.665 1657.06C686.086 1599.16 663.254 1515.74 659.687 1415.92C659.587 1413.11 659.504 1410.3 659.435 1407.46C655.523 1292.81 675.536 1179.87 717.31 1080.86C728.429 1030.08 753.11 962.271 807.344 928.329C872.157 876.383 934.24 884.658 1046.94 899.665C1060.52 901.478 1074.56 903.346 1089.53 905.234C1108.65 908.702 1126 911.255 1142.79 913.735C1185.8 920.079 1219.78 925.092 1251.12 940.664C1284.93 957.452 1312.28 985.124 1339.83 1030.4C1368.09 1066.3 1400.11 1122.5 1429.94 1188.6C1456.88 1248.26 1478.83 1309.22 1488.66 1351.67C1511.86 1402.83 1523.49 1449.2 1525.22 1497.44Z" fill="#EDE9F7"/>
<path d="M664.605 1430.02C667.968 1524.13 691.404 1602.11 732.379 1655.52C752.986 1692.38 778.757 1726.2 815.991 1765.23C860.666 1821.99 942.03 1875.56 1033.68 1908.58C1109.04 1948.86 1163.63 1965.35 1210.75 1962.08C1260.54 1959.62 1310.81 1932.58 1360.19 1881.72C1429.56 1814.91 1483.72 1711.09 1508.77 1596.88C1516.21 1562.52 1519.28 1530.6 1518.17 1499.33C1516.34 1448.23 1503.07 1399.04 1476.41 1344.55C1454.41 1261.88 1390.1 1118.63 1332.93 1045.04C1275.34 951.152 1223.56 940.334 1137.76 922.399C1125.12 919.75 1112.03 917.022 1098.01 913.828C1087.15 912.019 1076.7 910.231 1066.65 908.515C956.936 889.753 896.501 879.422 832.893 927.755C778.458 959.705 750.289 1026.03 736.235 1076.03C687.916 1178.22 663.021 1292.83 664.193 1407.6C664.203 1415.12 664.342 1422.67 664.605 1430.02ZM1519.18 1499.29C1520.3 1530.7 1517.22 1562.74 1509.75 1597.24C1484.64 1711.71 1430.36 1815.77 1360.82 1882.74C1311.3 1933.75 1260.82 1960.89 1210.81 1963.36C1163.54 1966.64 1108.81 1950.12 1033.35 1909.79C941.6 1876.74 860.067 1823.04 815.311 1766.17C778.038 1727.11 752.212 1693.21 731.602 1656.32C690.499 1602.76 666.964 1524.49 663.59 1430.06C663.327 1422.69 663.186 1415.13 663.176 1407.59C661.998 1292.6 686.947 1177.75 735.32 1075.48C749.394 1025.35 777.705 958.73 832.409 926.622C896.271 878.084 956.834 888.442 1066.78 907.24C1076.83 908.956 1087.27 910.744 1098.16 912.559C1112.19 915.758 1125.27 918.49 1137.92 921.13C1180.86 930.111 1214.77 937.193 1245.89 953.962C1279.41 972.032 1306.49 999.861 1333.69 1044.21C1390.92 1117.86 1455.33 1261.35 1477.33 1344.02C1504.03 1398.57 1517.35 1447.96 1519.18 1499.29Z" fill="#EDE9F7"/>
<path d="M668.39 1441.09C671.607 1531.12 695.836 1604.97 738.466 1654.65C762.47 1691.9 791.277 1722.72 827.163 1757.56C873.13 1811.3 948.411 1862.14 1033.74 1897.09C1083.43 1926.33 1147.81 1959.7 1205.66 1958.4C1254.69 1958.26 1304.18 1933.33 1352.75 1884.3C1423.41 1817.29 1479.88 1708.33 1503.84 1592.8C1510.47 1560.4 1513.18 1530.29 1512.13 1500.74C1510.17 1446.01 1495.63 1395.57 1464.95 1337.19C1441.05 1258.95 1379.84 1128.75 1326.73 1059.47C1269.34 966.812 1217.05 952.398 1130.42 928.515C1122.77 926.397 1114.85 924.218 1106.65 921.908C1100.4 920.564 1094.27 919.231 1088.29 917.942C984.08 895.37 921.181 881.752 858.091 926.814C803.247 956.9 771.448 1022 754.421 1071.31C700.282 1174.94 669.665 1294.47 668.162 1407.99C667.927 1419.16 668.005 1430.3 668.39 1441.09ZM1513.15 1500.7C1514.21 1530.37 1511.49 1560.61 1504.83 1593.14C1493.59 1647.3 1474.76 1701.72 1450.34 1750.52C1423.29 1804.6 1390.68 1849.95 1353.39 1885.31C1304.64 1934.52 1254.94 1959.54 1205.68 1959.69C1147.63 1960.99 1083.11 1927.56 1033.37 1898.28C947.97 1863.3 872.552 1812.36 826.513 1758.54C790.604 1723.68 761.745 1692.8 737.731 1655.52C694.949 1605.67 670.602 1531.51 667.373 1441.13C666.987 1430.31 666.91 1419.14 667.144 1407.94C667.891 1351.34 675.627 1293.72 690.138 1236.69C704.837 1178.9 726.166 1123.06 753.528 1070.69C770.584 1021.26 802.534 955.885 857.629 925.668C920.983 880.409 984.018 894.057 1088.45 916.67C1094.43 917.975 1100.56 919.297 1106.83 920.645C1115.06 922.969 1122.97 925.146 1130.63 927.259C1217.48 951.203 1269.91 965.656 1327.49 1058.63C1380.65 1127.98 1441.96 1258.38 1465.86 1336.62C1496.58 1395.08 1511.18 1445.72 1513.15 1500.7Z" fill="#EDE9F7"/>
<path d="M672.124 1450.48C675.229 1537.38 700.329 1607.86 744.706 1654.29C771.201 1689.97 803.866 1719.34 838.45 1750.42C885.296 1800.53 956.503 1849.99 1033.85 1886.14C1085.46 1919.5 1145.59 1953.78 1200.55 1955.27C1248.79 1957.46 1297.48 1934.63 1345.25 1887.4C1418.18 1819.23 1475.57 1707.77 1498.78 1589.24C1504.69 1558.65 1507.08 1530.18 1506.08 1502.21C1504.03 1444.66 1487.77 1391.65 1453.38 1330.35C1427.67 1256.99 1370.95 1141.25 1320.45 1074.38C1262.28 981.446 1208.17 962.683 1118.52 931.595L1115.27 930.465L1112.61 929.737C1009.11 901.393 946.636 884.281 883.361 926.368C828.195 954.564 792.752 1018.45 772.723 1067.08C712.09 1173.45 676.444 1294.81 672.307 1408.87C671.704 1423 671.643 1437 672.124 1450.48ZM1507.1 1502.17C1508.1 1530.26 1505.7 1558.85 1499.76 1589.56C1476.5 1708.37 1418.97 1820.1 1345.88 1888.43C1297.91 1935.83 1249.02 1958.75 1200.54 1956.55C1145.37 1955.06 1085.11 1920.71 1033.44 1887.31C956.051 1851.14 884.734 1801.6 837.83 1751.43C803.24 1720.34 770.534 1690.94 744.016 1655.22C699.452 1608.6 674.227 1537.8 671.108 1450.52C670.625 1437 670.687 1422.96 671.293 1408.79C675.434 1294.49 711.153 1172.89 771.859 1066.4C791.926 1017.66 827.52 953.521 882.923 925.202C946.478 882.928 1009.09 900.077 1112.81 928.486L1115.5 929.223L1118.78 930.361C1208.63 961.518 1262.86 980.324 1321.21 1073.54C1371.75 1140.48 1428.56 1256.38 1454.26 1329.74C1488.72 1391.13 1505.04 1444.35 1507.1 1502.17Z" fill="#EDE9F7"/>
<path d="M674.877 1457.4C677.892 1541.81 703.929 1609.41 750.172 1652.91C773.566 1680.18 801.769 1703.34 831.624 1727.86C837.326 1732.54 843.128 1737.31 849.024 1742.21C897.44 1789.21 964.631 1837.26 1033.39 1874.05C1083.89 1909.75 1142.54 1946.78 1195.01 1950.95C1242.49 1955.48 1290.41 1934.76 1337.44 1889.34C1412.7 1820.04 1471.04 1706.13 1493.52 1584.65C1498.81 1555.73 1500.92 1528.78 1499.98 1502.28C1497.82 1442.02 1479.82 1386.6 1441.6 1322.6C1414.29 1254.87 1361.68 1152.77 1313.87 1088.48C1257.68 999.899 1204.44 972.653 1123.43 938.293C1029.79 905.805 969.27 887.785 907.98 925.2C852.506 951.501 813.367 1014.15 790.293 1062.08C723.104 1171.04 682.397 1294.16 675.635 1408.84C674.572 1425.42 674.318 1441.76 674.877 1457.4ZM1500.99 1502.24C1501.94 1528.86 1499.83 1555.91 1494.52 1584.95C1471.98 1706.73 1413.49 1820.9 1338.05 1890.37C1290.83 1935.97 1242.68 1956.79 1194.96 1952.23C1142.28 1948.05 1083.51 1910.94 1032.96 1875.2C964.166 1838.4 896.893 1790.29 848.438 1743.24C842.578 1738.38 836.777 1733.62 831.077 1728.94C801.181 1704.38 772.949 1681.19 749.527 1653.89C727.215 1632.91 709.373 1605.88 696.54 1573.6C683.033 1539.62 675.402 1500.54 673.863 1457.44C673.302 1441.75 673.559 1425.36 674.622 1408.72C681.395 1293.8 722.179 1170.44 789.453 1061.34C812.576 1013.31 851.871 950.431 907.568 924.021C969.143 886.427 1029.82 904.49 1123.71 937.069C1204.93 971.507 1258.3 998.825 1314.64 1087.65C1362.48 1151.98 1415.17 1254.22 1442.46 1321.94C1480.76 1386.06 1498.83 1441.7 1500.99 1502.24Z" fill="#EDE9F7"/>
<path d="M678.544 1463.95C681.492 1546.45 708.502 1611.67 756.656 1652.55C777.897 1673.94 802.688 1692.19 828.936 1711.51C839.194 1719.06 849.803 1726.86 860.595 1735.14C898.063 1767.95 958.517 1816.79 1033.9 1863.31C1085.74 1903.39 1140.55 1941.38 1190.4 1948.1C1237.08 1955.01 1284.22 1936.36 1330.5 1892.67C1408.07 1822.14 1467.35 1705.65 1489.08 1581.03C1493.74 1554 1495.66 1527.69 1494.77 1502.86C1492.52 1439.86 1472.74 1382.07 1430.64 1315.45C1404.23 1258.61 1356.34 1168.9 1308.13 1102.85C1255.02 1020.27 1205.42 984.072 1132.45 946.161C1044.4 907.29 989.456 893.197 933.521 924.052C877.833 948.488 834.978 1009.98 808.83 1057.27C735.11 1168.86 689.364 1293.92 679.992 1409.47C678.406 1428.18 677.921 1446.51 678.544 1463.95ZM1495.79 1502.82C1496.68 1527.76 1494.75 1554.17 1490.07 1581.32C1479.99 1639.13 1460.96 1697.63 1435.05 1750.5C1406.88 1807.98 1370.93 1857.5 1331.11 1893.71C1284.62 1937.59 1237.24 1956.32 1190.29 1949.38C1140.25 1942.63 1085.33 1904.57 1033.43 1864.44C958.022 1817.91 897.52 1769.03 860.048 1736.22C849.289 1727.96 838.685 1720.16 828.432 1712.61C802.152 1693.27 777.33 1675 756.062 1653.58C732.827 1633.85 714.27 1608.05 700.947 1576.92C686.913 1544.12 679.034 1506.13 677.529 1463.99C676.903 1446.49 677.393 1428.09 678.98 1409.32C688.372 1293.53 734.2 1168.22 808.019 1056.48C834.229 1009.09 877.237 947.386 933.141 922.864C960.887 907.547 989.851 902.904 1024.25 908.264C1058.8 913.653 1096.84 929.086 1132.8 944.962C1205.95 982.969 1255.67 1019.25 1308.89 1102.02C1357.13 1168.11 1405.08 1257.92 1431.47 1314.74C1473.68 1381.5 1493.52 1439.53 1495.79 1502.82Z" fill="#EDE9F7"/>
<path d="M681.252 1469.25C684.139 1550.07 712.147 1613.09 762.252 1651.49C781.896 1668.49 804.321 1683.02 828.062 1698.4C842.057 1707.47 856.535 1716.85 871.247 1727.25C881.03 1734.89 891.222 1742.92 901.801 1751.25C941.163 1782.25 985.775 1817.39 1033.47 1851.55C1091.96 1900.85 1140.07 1935.44 1184.8 1944.09C1230.67 1953.36 1277.02 1936.82 1322.56 1894.91C1401.24 1824.33 1462.96 1702.43 1483.62 1576.78C1487.79 1551.15 1489.48 1526.2 1488.64 1502.61C1486.27 1436.14 1465.34 1377.96 1418.68 1308.06C1404.91 1282.48 1355.85 1193.31 1301.42 1117.29C1253.35 1043.82 1206.74 996.622 1140.54 954.342C1081.46 920.891 1018.45 893.965 958.155 923.27C913.962 941.107 868.44 985.834 826.483 1052.63C746.245 1166.61 695.465 1293.44 683.481 1409.77C681.327 1430.3 680.576 1450.31 681.252 1469.25ZM1489.66 1502.57C1490.5 1526.26 1488.81 1551.32 1484.62 1577.05C1474.92 1636.03 1455.83 1695.85 1429.41 1750.05C1400.74 1808.86 1364 1859.32 1323.16 1895.95C1277.4 1938.06 1230.8 1954.69 1184.66 1945.35C1139.74 1936.67 1091.53 1902.01 1032.95 1852.64C985.262 1818.49 940.641 1783.34 901.27 1752.33C890.693 1744 880.501 1735.98 870.741 1728.36C856.063 1717.98 841.596 1708.61 827.607 1699.54C803.835 1684.13 781.383 1669.59 761.708 1652.56C737.528 1634.03 718.249 1609.37 704.418 1579.28C689.846 1547.58 681.712 1510.57 680.237 1469.29C679.558 1450.28 680.31 1430.19 682.473 1409.59C694.483 1293.01 745.349 1165.94 825.701 1051.8C867.765 984.838 913.452 939.957 957.807 922.059C984.292 909.188 1012.47 906.068 1043.93 912.555C1071.04 918.141 1101.88 931.049 1140.97 953.186C1207.33 995.568 1254.03 1042.86 1302.19 1116.46C1356.65 1192.51 1405.74 1281.76 1419.49 1307.3C1466.27 1377.38 1487.27 1435.79 1489.66 1502.57Z" fill="#EDE9F7"/>
<path d="M683.977 1474.01C686.776 1552.38 716.617 1615.13 768.002 1650.73C786.414 1664.32 807.09 1675.95 828.984 1688.26C846.253 1697.97 864.115 1708.01 882.156 1719.74C925.555 1749.59 972.73 1789.26 1022.68 1831.26L1033.44 1840.3C1081.59 1884.49 1132.55 1928.63 1179.74 1940.68C1224.82 1952.35 1270.42 1937.89 1315.27 1897.7C1396.31 1825.95 1459.03 1701.43 1478.96 1572.75C1482.69 1548.42 1484.18 1524.69 1483.38 1502.24C1480.27 1415.35 1443.26 1351.56 1407.46 1300.62C1386.8 1267.71 1344.78 1202.01 1295.35 1131.48C1255.92 1072.45 1210.93 1011.08 1149.12 962.097C1084.82 914.516 1032.07 901.785 983.116 922.044C938.195 938.629 891.512 980.899 844.347 1047.68C757.523 1164.08 701.667 1292.8 687.059 1410.11C684.29 1432.28 683.254 1453.78 683.977 1474.01ZM1484.39 1502.19C1485.2 1524.75 1483.71 1548.58 1479.96 1573.01C1459.98 1702 1397.1 1826.82 1315.86 1898.75C1270.78 1939.15 1224.92 1953.68 1179.55 1941.94C1132.16 1929.84 1081.1 1885.61 1032.86 1841.36L1022.12 1832.32C972.194 1790.34 925.038 1750.69 881.687 1720.87C863.683 1709.17 845.836 1699.13 828.578 1689.43C806.66 1677.1 785.957 1665.46 767.509 1651.84C742.352 1634.41 722.312 1610.78 707.949 1581.59C692.818 1550.84 684.409 1514.66 682.959 1474.05C682.233 1453.74 683.275 1432.15 686.053 1409.9C700.696 1292.34 756.645 1163.38 843.592 1046.81C890.876 979.86 937.717 937.463 982.803 920.812C1032.04 900.445 1085.06 913.211 1149.64 961.005C1211.58 1010.09 1256.65 1071.55 1296.12 1130.65C1345.55 1201.2 1387.58 1266.91 1408.24 1299.8C1444.14 1350.89 1481.28 1414.9 1484.39 1502.19Z" fill="#EDE9F7"/>
<path d="M686.674 1478.15C689.433 1555.4 720.365 1616.36 773.772 1649.79C791.159 1660.64 810.444 1669.9 830.858 1679.71C851.129 1689.45 872.089 1699.52 893.069 1712.03C933.773 1736.31 975.738 1771.24 1033.38 1828.82C1082.31 1877.64 1129.93 1922.64 1174.63 1936.99C1218.91 1951.07 1263.76 1938.7 1307.92 1900.22C1391.3 1827.32 1455.02 1700.24 1474.21 1568.57C1477.56 1545.45 1478.86 1522.89 1478.1 1501.5C1474.88 1411.37 1434.87 1345.58 1396.17 1293.13C1389.86 1284.59 1383.37 1275.88 1376.72 1266.94C1350.23 1231.33 1320.2 1190.96 1289.22 1145.69C1281.88 1134.96 1274.39 1123.8 1267.14 1113.01C1233.27 1062.59 1198.26 1010.46 1157.66 969.907C1109.79 922.118 1056.66 904.71 1008.08 920.892C963.126 935.984 914.056 976.985 862.233 1042.76C768.84 1161.5 707.907 1292.05 690.663 1410.37C687.252 1434 685.911 1456.81 686.674 1478.15ZM1479.12 1501.46C1479.88 1522.94 1478.57 1545.61 1475.21 1568.81C1455.97 1700.81 1392.1 1828.2 1308.5 1901.28C1264.09 1939.97 1218.97 1952.4 1174.39 1938.23C1129.5 1923.82 1081.77 1878.73 1032.76 1829.82C975.175 1772.3 933.274 1737.42 892.643 1713.19C871.699 1700.7 850.759 1690.64 830.506 1680.91C810.067 1671.09 790.762 1661.81 773.328 1650.94C747.18 1634.57 726.37 1611.89 711.469 1583.54C695.774 1553.66 687.087 1518.22 685.658 1478.2C684.892 1456.75 686.24 1433.85 689.66 1410.13C698.249 1351.21 717.718 1289.04 747.532 1225.33C777.108 1162.14 815.455 1100.41 861.508 1041.85C913.457 975.918 962.681 934.805 1007.81 919.65C1056.71 903.363 1110.15 920.853 1158.29 968.907C1198.97 1009.54 1234.02 1061.72 1267.91 1112.18C1275.16 1122.98 1282.65 1134.13 1289.99 1144.85C1320.95 1190.12 1350.97 1230.46 1377.46 1266.07C1384.11 1275 1390.6 1283.73 1396.91 1292.26C1435.75 1344.89 1475.88 1410.9 1479.12 1501.46Z" fill="#EDE9F7"/>
<path d="M699.624 1479.46C702.37 1556.35 731.945 1616.38 782.902 1648.48C800.946 1659.87 820.745 1669.3 841.704 1679.29C860.361 1688.18 879.654 1697.37 899.152 1708.64C908.277 1713.95 917.777 1720.02 927.39 1726.66C959.267 1748.7 992.911 1777.36 1036.48 1819.58C1084.32 1865.78 1130.87 1908.35 1174.6 1921.68C1217.85 1934.75 1261.52 1922.53 1304.4 1885.36C1353.86 1842.55 1394.96 1781.38 1423.27 1708.46C1441.78 1661.88 1455.02 1610.77 1461.57 1560.63C1464.58 1538.55 1465.73 1516.93 1465 1496.37C1463.02 1441.12 1447.83 1390.5 1417.19 1337.07C1408.75 1322.44 1399.01 1307.38 1387.43 1291.02C1378.39 1278.09 1369.06 1264.92 1359.17 1250.97C1337.02 1219.7 1311.9 1184.27 1286.1 1145.75C1281.9 1139.44 1277.69 1133.07 1273.45 1126.67C1244.63 1083.11 1214.83 1038.07 1181.31 1000.07C1173.35 991.044 1165.38 982.622 1157.59 975.05C1110.85 929.392 1058.94 912.843 1011.42 928.442C967.08 943.063 919.013 982.55 868.552 1045.79C834.411 1087.92 803.875 1135.4 777.79 1186.92C759.446 1222.71 743.644 1259.99 730.826 1297.72C717.986 1335.62 709.322 1371.87 703.564 1411.81C700.186 1435.3 698.859 1458.06 699.624 1479.46ZM1466.01 1496.32C1466.75 1516.98 1465.6 1538.69 1462.57 1560.86C1456.01 1611.12 1442.73 1662.36 1424.18 1709.03C1395.8 1782.15 1354.58 1843.49 1304.98 1886.42C1261.86 1923.8 1217.91 1936.08 1174.37 1922.93C1130.45 1909.54 1083.8 1866.88 1035.87 1820.59C992.339 1778.42 958.736 1749.79 926.911 1727.79C917.318 1721.16 907.84 1715.1 898.737 1709.8C879.27 1698.55 859.996 1689.37 841.357 1680.49C820.369 1670.49 800.55 1661.04 782.456 1649.63C731.151 1617.3 701.372 1556.88 698.608 1479.5C697.84 1458.01 699.172 1435.15 702.562 1411.57C708.337 1371.54 717.022 1335.19 729.891 1297.21C742.731 1259.4 758.559 1222.07 776.934 1186.22C803.058 1134.62 833.641 1087.06 867.833 1044.87C918.418 981.474 966.638 941.883 1011.15 927.199C1058.98 911.502 1111.21 928.131 1158.21 974.036C1166.01 981.632 1174.01 990.072 1181.98 999.122C1215.56 1037.18 1245.38 1082.26 1274.23 1125.85C1278.46 1132.26 1282.68 1138.63 1286.88 1144.93C1312.67 1183.43 1336.69 1217.34 1359.92 1250.13C1369.81 1264.07 1379.15 1277.25 1388.19 1290.17C1399.79 1306.57 1409.55 1321.66 1418 1336.32C1448.78 1389.97 1464.03 1440.81 1466.01 1496.32Z" fill="#EDE9F7"/>
<path d="M712.568 1481.27C715.297 1557.66 743.485 1616.67 791.939 1647.42C810.668 1659.38 830.974 1668.95 852.473 1679.09C869.481 1687.12 887.067 1695.41 905.009 1705.43C913.864 1710.46 923.128 1716.2 932.551 1722.52C963.802 1743.46 996.695 1770.57 1039.2 1810.42C1085.88 1853.97 1131.31 1894.08 1174.03 1906.37C1216.19 1918.41 1258.64 1906.35 1300.2 1870.52C1349.23 1828.5 1388.57 1768.53 1413.95 1697.11C1430.77 1652.07 1442.25 1603.6 1448.06 1553.03C1450.74 1532.03 1451.73 1511.4 1451.03 1491.72C1449.1 1437.7 1434.74 1387.83 1405.84 1334.76C1397.91 1320.34 1388.77 1305.54 1377.91 1289.5C1365.45 1270.6 1352.21 1250.98 1338.19 1230.21C1320.35 1203.79 1301.91 1176.47 1282.32 1146.55L1280.24 1143.35C1249.27 1095.44 1217.25 1045.9 1180.26 1005.01C1172.49 996.401 1164.66 988.343 1157 981.085C1111.44 937.609 1060.8 921.924 1014.4 936.93C970.724 951.069 923.716 988.991 874.675 1049.63C841.118 1089.83 812.201 1135.76 786.256 1190.05C769.143 1224.99 754.609 1261.13 741.813 1300.52C730.265 1336.26 722.68 1370.12 716.457 1413.72C713.109 1437.08 711.801 1459.8 712.568 1481.27ZM1452.05 1491.67C1452.75 1511.45 1451.75 1532.16 1449.07 1553.24C1443.24 1603.92 1431.73 1652.51 1414.87 1697.65C1389.42 1769.28 1349.97 1829.43 1300.78 1871.59C1258.98 1907.62 1216.27 1919.74 1173.81 1907.62C1130.91 1895.27 1085.37 1855.08 1038.6 1811.44C996.139 1771.63 963.287 1744.55 932.083 1723.65C922.681 1717.35 913.435 1711.61 904.602 1706.6C886.691 1696.6 869.12 1688.31 852.129 1680.29C830.604 1670.14 810.269 1660.55 791.491 1648.56C767.665 1633.44 748.604 1611.39 734.838 1583.02C720.762 1554.02 712.929 1519.8 711.554 1481.31C710.784 1459.75 712.099 1436.93 715.459 1413.48C721.696 1369.78 729.295 1335.85 740.876 1300.02C753.691 1260.56 768.25 1224.37 785.387 1189.37C811.374 1134.99 840.35 1088.97 873.965 1048.71C923.127 987.91 970.287 949.881 1014.13 935.688C1060.84 920.583 1111.8 936.342 1157.6 980.065C1165.29 987.344 1173.13 995.418 1180.93 1004.06C1217.97 1045.01 1250.03 1094.6 1281.03 1142.55L1283.09 1145.74C1302.68 1175.65 1321.12 1202.97 1338.96 1229.39C1352.98 1250.16 1366.23 1269.78 1378.69 1288.69C1389.56 1304.75 1398.71 1319.58 1406.68 1334.03C1435.69 1387.32 1450.11 1437.41 1452.05 1491.67Z" fill="#EDE9F7"/>
<path d="M725.554 1483.27C728.229 1558.14 755.769 1617.72 801.115 1646.74C820.604 1659.35 841.457 1669.06 863.535 1679.35C878.9 1686.51 894.782 1693.91 911.131 1702.72C919.735 1707.48 928.779 1712.92 938.007 1718.9C968.667 1738.78 1000.84 1764.39 1042.33 1801.96C1087.9 1842.94 1132.27 1880.66 1174.02 1891.94C1215.16 1902.98 1256.43 1891.06 1296.7 1856.52C1345.36 1815.2 1382.97 1756.33 1405.46 1686.26C1420.38 1643.4 1430.45 1596.1 1435.43 1545.67C1437.78 1525.73 1438.62 1506.09 1437.94 1487.27C1436.06 1434.38 1422.51 1385.13 1395.32 1332.26C1387.86 1318.02 1379.31 1303.45 1369.18 1287.73C1352 1259.93 1332.93 1230.35 1312.74 1199.03C1301.94 1182.28 1290.77 1164.95 1279.19 1146.82C1249.45 1099.32 1217.28 1049.56 1179.77 1009.16C1172.14 1000.92 1164.46 993.216 1156.92 986.267C1112.51 944.887 1063.08 930.044 1017.74 944.481C974.68 958.163 928.68 994.594 881.011 1052.75C847.735 1091.47 820.356 1135.94 794.844 1192.71C779.218 1226.23 765.493 1262.32 752.878 1303.05C741.127 1341.25 735.372 1373.23 729.397 1415.57C726.074 1438.87 724.782 1461.65 725.554 1483.27ZM1438.96 1487.23C1439.63 1506.13 1438.78 1525.85 1436.43 1545.87C1431.45 1596.4 1421.34 1643.82 1406.4 1686.78C1383.84 1757.06 1346.1 1816.13 1297.28 1857.58C1256.78 1892.33 1215.24 1904.31 1173.82 1893.19C1131.88 1881.87 1087.41 1844.07 1041.75 1803C1000.3 1765.47 968.164 1739.88 937.555 1720.04C928.343 1714.07 919.32 1708.64 910.737 1703.89C894.416 1695.1 878.545 1687.7 863.197 1680.55C841.086 1670.25 820.204 1660.52 800.663 1647.89C754.977 1618.64 727.229 1558.66 724.538 1483.31C723.762 1461.59 725.062 1438.72 728.397 1415.33C734.382 1372.92 740.153 1340.87 751.931 1302.57C764.567 1261.78 778.314 1225.63 793.965 1192.06C819.523 1135.18 846.962 1090.62 880.31 1051.82C928.094 993.507 974.248 956.975 1017.48 943.238C1063.12 928.712 1112.86 943.621 1157.52 985.237C1165.07 992.201 1172.78 999.925 1180.42 1008.19C1218 1048.67 1250.21 1098.48 1279.98 1146.02C1291.56 1164.15 1302.73 1181.48 1313.53 1198.23C1333.72 1229.55 1352.79 1259.14 1369.97 1286.94C1380.12 1302.69 1388.69 1317.3 1396.17 1331.57C1423.46 1384.64 1437.06 1434.1 1438.96 1487.23Z" fill="#EDE9F7"/>
<path d="M737.629 1485.34C740.28 1559.57 766.459 1618.02 809.458 1645.69C829.789 1658.97 851.23 1668.77 873.93 1679.15C887.649 1685.42 901.838 1691.91 916.556 1699.51C924.91 1703.99 933.738 1709.11 942.8 1714.76C972.9 1733.52 1004.39 1757.58 1044.92 1792.8C1087.67 1829.61 1132.81 1866.4 1173.64 1876.63C1213.8 1886.64 1253.95 1874.88 1292.99 1841.67C1341.34 1801.14 1377.28 1743.47 1396.91 1674.89C1409.95 1634.39 1418.65 1588.35 1422.79 1538.04C1424.8 1519.24 1425.5 1500.65 1424.87 1482.79C1423.02 1431.09 1410.27 1382.51 1384.76 1329.9C1377.78 1315.87 1369.81 1301.57 1360.38 1286.16C1335.68 1243.45 1306.65 1196.88 1275.91 1147.58C1249.43 1103.96 1217.21 1054 1179 1014.08C1171.53 1006.23 1163.98 998.893 1156.56 992.272C1113.23 953.064 1064.95 939.095 1020.6 952.946C978.104 966.144 933.048 1001.02 886.687 1056.61C853.456 1094.03 827.54 1136.98 802.644 1195.85C788.302 1228.16 775.733 1263.11 763.085 1305.85C751.581 1345.09 747.264 1375.93 741.793 1414.99L741.444 1417.5C738.132 1440.73 736.85 1463.55 737.629 1485.34ZM1425.88 1482.75C1426.52 1500.69 1425.82 1519.35 1423.8 1538.21C1419.65 1588.62 1410.92 1634.77 1397.86 1675.36C1378.16 1744.17 1342.09 1802.05 1293.56 1842.74C1254.3 1876.14 1213.89 1887.97 1173.45 1877.88C1132.43 1867.61 1087.18 1830.74 1044.36 1793.85C1003.87 1758.67 972.414 1734.64 942.361 1715.91C933.313 1710.27 924.505 1705.15 916.175 1700.69C901.484 1693.1 887.306 1686.62 873.594 1680.35C850.863 1669.96 829.389 1660.14 809.004 1646.83C765.666 1618.94 739.282 1560.09 736.613 1485.38C735.832 1463.5 737.117 1440.58 740.443 1417.26L740.792 1414.75C746.271 1375.64 750.598 1344.74 762.133 1305.39C774.798 1262.59 787.387 1227.58 801.751 1195.23C826.7 1136.22 852.685 1093.18 885.994 1055.66C932.47 999.936 977.678 964.96 1020.35 951.702C1064.99 937.761 1113.57 951.802 1157.14 991.23C1164.58 997.869 1172.15 1005.23 1179.65 1013.1C1217.94 1053.1 1250.2 1103.13 1276.71 1146.8C1307.45 1196.11 1336.49 1242.69 1361.19 1285.42C1370.63 1300.83 1378.63 1315.17 1385.62 1329.24C1411.24 1382.05 1424.03 1430.83 1425.88 1482.75Z" fill="#EDE9F7"/>
<path d="M750.578 1487.12C753.206 1560.68 777.969 1617.98 818.521 1644.34C839.693 1658.35 861.674 1668.21 884.947 1678.65C896.986 1684.05 909.431 1689.63 922.427 1696.07C930.637 1700.33 938.99 1705.02 947.971 1710.4C977.423 1728.05 1008.16 1750.6 1047.63 1783.51C1089.25 1817.81 1133.21 1852.08 1173.05 1861.28C1212.13 1870.28 1251.06 1858.67 1288.75 1826.78C1336.67 1787 1370.83 1730.49 1387.55 1663.35C1398.86 1624.75 1405.95 1581.18 1409.25 1530.12C1410.95 1512.48 1411.49 1494.99 1410.89 1478.11C1409.08 1427.53 1397.16 1379.53 1373.38 1327.06C1366.9 1313.22 1359.52 1299.17 1350.82 1284.09C1330.4 1246.02 1306.12 1203.95 1272.07 1147.69C1238.7 1090.67 1208.78 1049.53 1177.91 1018.2C1170.6 1010.73 1163.2 1003.76 1155.91 997.461C1113.8 960.389 1066.79 947.276 1023.55 960.529C982.308 973.082 937.094 1007.36 892.806 1059.65C850.812 1105.6 827.092 1157.88 811.122 1198.29C794.525 1237.84 782.612 1277.72 774.09 1308.05C764.652 1342.02 761.044 1369.03 756.87 1400.3C756.071 1406.28 755.246 1412.46 754.352 1418.91C751.061 1442.15 749.792 1465.09 750.578 1487.12ZM1411.91 1478.07C1412.51 1495.02 1411.96 1512.58 1410.26 1530.26C1406.95 1581.42 1399.84 1625.09 1388.51 1663.77C1371.73 1731.17 1337.43 1787.91 1289.32 1827.85C1251.4 1859.93 1212.22 1871.61 1172.88 1862.54C1132.85 1853.29 1088.79 1818.95 1047.09 1784.58C1007.65 1751.7 976.953 1729.18 947.547 1711.55C938.583 1706.18 930.246 1701.5 922.058 1697.26C909.087 1690.83 896.648 1685.25 884.62 1679.86C861.31 1669.4 839.294 1659.53 818.06 1645.47C777.177 1618.91 752.21 1561.2 749.565 1487.16C748.775 1465.04 750.048 1442 753.354 1418.68C754.246 1412.23 755.069 1406.05 755.871 1400.07C760.053 1368.75 763.664 1341.69 773.133 1307.62C781.669 1277.24 793.595 1237.3 810.216 1197.69C826.225 1157.19 850.006 1104.78 892.12 1058.69C936.521 1006.26 981.887 971.888 1023.3 959.287C1066.83 945.938 1114.13 959.123 1156.48 996.41C1163.79 1002.73 1171.21 1009.72 1178.54 1017.21C1209.48 1048.61 1239.46 1089.82 1272.87 1146.93C1306.94 1203.2 1331.23 1245.28 1351.64 1283.37C1360.36 1298.46 1367.76 1312.55 1374.25 1326.43C1398.13 1379.09 1410.09 1427.28 1411.91 1478.07Z" fill="#EDE9F7"/>
<path d="M763.55 1489.45C766.11 1561.09 790.091 1618.56 827.695 1643.2C849.775 1657.98 872.326 1667.83 896.199 1678.26C906.569 1682.78 917.29 1687.47 928.539 1692.78C936.478 1696.75 944.612 1701.13 953.416 1706.17C981.865 1722.48 1012.79 1744.12 1050.75 1774.28C1091.27 1806.05 1134.1 1837.75 1173.02 1845.91C1211.07 1853.89 1248.82 1842.44 1285.23 1811.88C1332.76 1772.9 1365.21 1717.59 1379.05 1651.95C1388.61 1615.53 1394.19 1574.4 1396.62 1522.47C1397.99 1506.08 1398.4 1489.77 1397.84 1473.97C1396.07 1424.5 1384.96 1377.07 1362.86 1324.7C1356.88 1311.06 1350.09 1297.27 1342.09 1282.53C1321.85 1241.61 1297.93 1197.76 1268.96 1148.46C1239.19 1095.68 1208.41 1053.51 1177.45 1023.12C1170.3 1016.05 1163.04 1009.44 1155.88 1003.47C1114.91 968.567 1069.13 956.324 1026.93 968.992C986.286 981.061 942.109 1013.74 899.177 1063.48C857.831 1107.33 835.817 1157.8 819.738 1201.39C805.302 1237.82 794.592 1275.51 785.17 1310.8C777.165 1341.19 774.315 1364.58 771.013 1391.66C769.895 1400.85 768.734 1410.35 767.304 1420.76C764.017 1444.03 762.753 1467.14 763.55 1489.45ZM1398.86 1473.92C1399.42 1489.79 1399.01 1506.17 1397.63 1522.59C1395.2 1574.61 1389.6 1615.84 1380.02 1652.33C1366.13 1718.25 1333.54 1773.8 1285.79 1812.96C1249.17 1843.69 1211.18 1855.2 1172.86 1847.17C1133.76 1838.97 1090.83 1807.2 1050.22 1775.36C1012.3 1745.23 981.411 1723.62 953.005 1707.33C944.218 1702.3 936.098 1697.93 928.185 1693.97C916.959 1688.67 906.242 1683.99 895.879 1679.46C871.966 1669.02 849.38 1659.16 827.233 1644.33C807.821 1631.61 792.235 1611.07 780.912 1583.27C770.137 1556.82 763.784 1524.39 762.537 1489.49C761.737 1467.09 763.003 1443.89 766.305 1420.53C767.735 1410.12 768.892 1400.63 770.01 1391.45C773.319 1364.31 776.174 1340.87 784.208 1310.38C793.643 1275.04 804.367 1237.31 818.823 1200.82C834.944 1157.12 857.025 1106.5 898.504 1062.52C941.542 1012.65 985.874 979.868 1026.69 967.749C1069.16 954.994 1115.24 967.302 1156.43 1002.41C1163.62 1008.4 1170.9 1015.03 1178.07 1022.12C1209.1 1052.58 1239.96 1094.84 1269.78 1147.71C1298.76 1197.04 1322.69 1240.91 1342.94 1281.84C1350.94 1296.59 1357.75 1310.42 1363.75 1324.1C1385.93 1376.66 1397.08 1424.26 1398.86 1473.92Z" fill="#EDE9F7"/>
<path d="M776.523 1491.6C779.051 1562.34 801.613 1618.49 836.878 1641.81C859.901 1657.42 881.936 1666.75 907.453 1677.55C916.168 1681.23 925.183 1685.05 934.654 1689.3C942.353 1692.99 950.267 1697.07 958.863 1701.77C986.693 1716.98 1016.88 1737.05 1053.85 1764.94C1093.28 1794.22 1134.96 1823.39 1172.98 1830.52C1210 1837.48 1246.58 1826.19 1281.69 1796.95C1328.84 1758.72 1359.56 1704.57 1370.51 1640.36C1380.52 1596.85 1382.95 1550.25 1383.96 1514.5C1385.02 1499.41 1385.3 1484.36 1384.78 1469.71C1383.05 1421.26 1372.73 1374.26 1352.31 1321.8C1346.83 1308.36 1340.62 1294.81 1333.33 1280.4C1313.8 1237.25 1291.72 1194.12 1265.82 1148.52C1238.85 1098.72 1208.13 1056.78 1176.95 1027.22C1169.96 1020.53 1162.84 1014.28 1155.8 1008.62C1116.01 975.857 1071.43 964.47 1030.29 976.559C979.681 991.211 934.515 1033.57 905.535 1066.52C864.618 1108.59 844.256 1157.37 828.343 1203.81C815.339 1238.77 806.116 1273.94 796.251 1312.98C789.309 1340.87 787.091 1361.71 784.521 1385.85C783.323 1397.11 782.081 1408.76 780.258 1422.15C776.968 1445.54 775.712 1468.91 776.523 1491.6ZM1385.79 1469.67C1386.31 1484.37 1386.04 1499.49 1384.97 1514.59C1383.96 1550.38 1381.53 1597.09 1371.5 1640.69C1360.49 1705.19 1329.62 1759.61 1282.25 1798.02C1246.93 1827.43 1210.12 1838.79 1172.84 1831.79C1134.65 1824.62 1092.86 1795.38 1053.35 1766.05C1016.4 1738.18 986.257 1718.13 958.472 1702.94C949.887 1698.25 941.987 1694.18 934.316 1690.5C924.864 1686.25 915.853 1682.44 907.142 1678.76C881.581 1667.94 859.506 1658.6 836.413 1642.93C800.822 1619.4 778.054 1562.85 775.51 1491.65C774.696 1468.86 775.957 1445.4 779.259 1421.92C781.079 1408.55 782.316 1396.91 783.515 1385.66C786.092 1361.47 788.316 1340.57 795.284 1312.58C805.16 1273.49 814.397 1238.29 827.419 1203.28C843.377 1156.71 863.805 1107.77 904.87 1065.54C933.919 1032.51 979.234 990.03 1030.05 975.307C1071.46 963.14 1116.32 974.589 1156.34 1007.54C1163.41 1013.22 1170.55 1019.5 1177.56 1026.2C1208.82 1055.85 1239.62 1097.9 1266.65 1147.8C1292.57 1193.42 1314.66 1236.58 1334.2 1279.75C1341.49 1294.17 1347.71 1307.75 1353.22 1321.24C1373.7 1373.87 1384.05 1421.04 1385.79 1469.67Z" fill="#EDE9F7"/>
<path d="M788.635 1494.58C791.127 1564.31 812.277 1619.1 845.211 1641.12C869.18 1657.62 891.703 1666.8 917.779 1677.42C924.875 1680.32 932.211 1683.31 939.913 1686.58C947.355 1690 955.051 1693.78 963.454 1698.14C990.644 1712.26 1020.08 1730.79 1056.1 1756.46C1094.42 1783.26 1134.93 1809.94 1172.06 1816.05C1208.06 1821.99 1243.46 1810.84 1277.26 1782.9C1324.02 1745.39 1353 1692.35 1361.09 1629.5C1368.26 1592.66 1369.99 1553.94 1370.39 1507.12C1371.16 1493.46 1371.32 1479.76 1370.84 1466.39C1369.14 1418.82 1359.61 1372.09 1340.86 1319.31C1335.87 1306.03 1330.24 1292.71 1323.66 1278.62C1305.39 1234.01 1285.15 1191.56 1261.76 1148.8C1236.98 1100.93 1207.18 1060.34 1175.54 1031.39C1168.71 1025.08 1161.74 1019.18 1154.82 1013.85C1116.2 983.176 1072.85 972.627 1032.74 984.152C982.89 998.223 939.029 1038.42 911.01 1069.66C872.615 1108 853.294 1152.09 836.086 1206.49C824.415 1240.11 816.285 1274.28 807.679 1310.45L806.472 1315.52C800.36 1341.62 798.684 1360.59 796.746 1382.55C795.629 1395.2 794.478 1408.28 792.357 1424.02C789.057 1447.64 787.806 1471.37 788.635 1494.58ZM1371.85 1466.34C1372.33 1479.77 1372.18 1493.51 1371.4 1507.19C1371.01 1554.06 1369.27 1592.86 1362.08 1629.76C1353.96 1692.93 1324.82 1746.27 1277.82 1783.97C1243.81 1812.08 1208.18 1823.31 1171.94 1817.32C1134.64 1811.18 1094.02 1784.44 1055.61 1757.57C1019.63 1731.93 990.227 1713.42 963.079 1699.33C954.689 1694.97 947.007 1691.2 939.591 1687.79C931.907 1684.52 924.571 1681.53 917.48 1678.64C891.353 1667.99 868.79 1658.8 844.74 1642.25C811.486 1620.01 790.131 1564.82 787.622 1494.62C786.79 1471.32 788.047 1447.49 791.356 1423.79C793.472 1408.09 794.625 1395.03 795.738 1382.4C797.682 1360.37 799.362 1341.34 805.497 1315.15L806.71 1310.07C815.324 1273.86 823.463 1239.65 835.153 1205.99C852.41 1151.41 871.805 1107.16 910.354 1068.68C938.438 1037.36 982.452 997.035 1032.51 982.9C1072.87 971.307 1116.5 981.909 1155.34 1012.76C1162.29 1018.11 1169.28 1024.03 1176.13 1030.36C1207.86 1059.39 1237.76 1100.11 1262.6 1148.1C1286.01 1190.88 1306.27 1233.38 1324.54 1278.01C1331.13 1292.11 1336.77 1305.46 1341.78 1318.78C1360.58 1371.73 1370.14 1418.61 1371.85 1466.34Z" fill="#EDE9F7"/>
<path d="M801.628 1497.64C804.073 1566.03 823.81 1619.21 854.432 1639.89C879.313 1657.22 902.252 1666.12 928.813 1676.44C934.345 1678.58 940.074 1680.81 946.056 1683.19C953.249 1686.34 960.724 1689.81 968.924 1693.82C995.451 1706.81 1024.14 1723.75 1059.21 1747.14C1096.41 1771.42 1135.75 1795.55 1172.01 1800.61C1206.99 1805.53 1241.2 1794.53 1273.7 1767.94C1320.07 1731.23 1347.33 1679.41 1352.54 1618.06C1358.21 1582.08 1358.25 1544.65 1357.72 1499.44C1358.22 1487.39 1358.25 1475.28 1357.83 1463.4C1356.16 1416.72 1347.41 1370.17 1330.31 1316.92C1325.82 1303.83 1320.78 1290.78 1314.9 1277.04C1298.2 1231.53 1279.8 1189.84 1258.62 1149.57C1236.2 1104.18 1206.53 1063.97 1175.06 1036.33C1168.39 1030.41 1161.56 1024.87 1154.77 1019.87C1117.34 991.363 1075.2 981.688 1036.13 992.618C987.024 1006.08 944.466 1044.04 917.412 1073.51C879.218 1110.44 860.744 1154.61 844.749 1209.57C835.068 1239.57 828.315 1270 821.168 1302.22C819.992 1307.51 818.809 1312.85 817.599 1318.23C812.157 1342.93 810.906 1361.28 809.585 1380.69C808.662 1394.22 807.709 1408.22 805.355 1425.81C802.033 1449.7 800.779 1473.87 801.628 1497.64ZM1358.84 1463.36C1359.27 1475.28 1359.23 1487.43 1358.73 1499.48C1359.26 1544.72 1359.22 1582.22 1353.54 1618.27C1348.3 1679.96 1320.88 1732.11 1274.26 1769.02C1241.56 1795.77 1207.12 1806.83 1171.91 1801.88C1135.48 1796.8 1096.04 1772.61 1058.75 1748.27C1023.72 1724.9 995.056 1707.98 968.567 1695.01C960.381 1691.01 952.916 1687.54 945.746 1684.41C939.784 1682.03 934.057 1679.81 928.524 1677.66C901.911 1667.33 878.927 1658.4 853.956 1641.01C823.019 1620.12 803.077 1566.54 800.616 1497.68C799.763 1473.82 801.021 1449.56 804.356 1425.58C806.701 1408.04 807.654 1394.07 808.576 1380.57C809.902 1361.09 811.157 1342.69 816.625 1317.88C817.833 1312.48 819.018 1307.16 820.192 1301.86C827.349 1269.61 834.106 1239.13 843.802 1209.1C859.853 1153.95 878.406 1109.61 916.769 1072.52C943.886 1042.97 986.59 1004.89 1035.9 991.368C1075.23 980.367 1117.62 990.096 1155.27 1018.77C1162.09 1023.78 1168.94 1029.34 1175.63 1035.29C1207.21 1063.03 1236.99 1103.37 1259.47 1148.9C1280.67 1189.2 1299.1 1230.94 1315.8 1276.48C1321.68 1290.22 1326.74 1303.3 1331.24 1316.44C1348.4 1369.84 1357.17 1416.53 1358.84 1463.36Z" fill="#EDE9F7"/>
<path d="M814.628 1500.69C817.055 1568.58 834.931 1618.78 863.673 1638.42C889.39 1656.58 911.529 1664.7 939.56 1674.97C943.64 1676.46 947.844 1678 952.207 1679.63C959.169 1682.5 966.425 1685.68 974.398 1689.33C1000.24 1701.19 1028.18 1716.57 1062.33 1737.73C1096.79 1758.56 1136.53 1781.13 1171.94 1785.14C1205.89 1789.03 1238.93 1778.19 1270.12 1752.92C1316.07 1716.98 1341.59 1666.33 1343.95 1606.42C1347.78 1573.63 1346.6 1538.58 1345.34 1501.48L1345 1491.43C1345.25 1481.25 1345.19 1470.99 1344.83 1460.89C1343.19 1414.86 1335.2 1368.19 1319.7 1313.99C1315.72 1301.07 1311.26 1288.27 1306.09 1274.89C1290.94 1228.05 1274.85 1188.26 1255.42 1149.63C1234.88 1105.82 1206.16 1067.04 1174.54 1040.43C1168.02 1034.89 1161.34 1029.7 1154.67 1025.03C1118.43 998.654 1077.53 989.831 1039.49 1000.18C991.127 1013.04 949.886 1048.8 923.809 1076.54C881.533 1116.17 865.855 1165.18 853.418 1211.97C845.354 1239.06 839.769 1266.5 833.854 1295.55C832.193 1303.71 830.51 1311.98 828.745 1320.38C823.861 1344.04 823.072 1361.17 822.235 1379.31C821.587 1393.41 820.912 1408 818.374 1427.15C815.06 1451.11 813.765 1476.54 814.628 1500.69ZM1345.84 1460.85C1346.21 1470.98 1346.27 1481.27 1346.02 1491.44L1346.35 1501.45C1347.61 1538.61 1348.8 1573.71 1344.96 1606.56C1342.59 1666.84 1316.9 1717.85 1270.66 1754.01C1239.29 1779.43 1206.05 1790.33 1171.87 1786.41C1136.28 1782.39 1096.44 1759.76 1061.89 1738.87C1027.77 1717.73 999.867 1702.37 974.064 1690.54C966.101 1686.88 958.856 1683.71 951.919 1680.85C947.571 1679.23 943.367 1677.69 939.29 1676.2C911.199 1665.9 889.007 1657.77 863.196 1639.54C834.134 1619.67 816.061 1569.08 813.617 1500.73C812.751 1476.5 814.051 1450.97 817.375 1426.92C819.905 1407.84 820.576 1393.29 821.225 1379.21C822.063 1361.01 822.858 1343.82 827.766 1320.04C829.531 1311.64 831.215 1303.38 832.874 1295.21C838.795 1266.13 844.388 1238.66 852.462 1211.54C864.948 1164.57 880.692 1115.36 923.175 1075.53C949.317 1047.73 990.702 1011.85 1039.26 998.936C1077.55 988.516 1118.71 997.39 1155.16 1023.91C1161.85 1028.61 1168.56 1033.81 1175.09 1039.37C1206.84 1066.08 1235.68 1105.01 1256.29 1148.97C1275.73 1187.66 1291.85 1227.51 1307.01 1274.37C1312.18 1287.76 1316.65 1300.59 1320.65 1313.56C1336.19 1367.89 1344.19 1414.68 1345.84 1460.85Z" fill="#EDE9F7"/>
<path d="M826.772 1504.54C829.132 1570.52 845.672 1618.85 872.151 1637.13C898.615 1656.03 919.844 1663.26 949.227 1673.28C951.992 1674.22 954.824 1675.19 957.741 1676.19C964.495 1678.79 971.539 1681.66 979.293 1684.96C1004.44 1695.66 1031.67 1709.45 1065 1728.36C1106.44 1751.24 1140.44 1767.02 1171.63 1769.67C1204.62 1772.52 1236.53 1761.85 1266.45 1737.93C1312.07 1702.8 1335.92 1653.36 1335.43 1594.95C1336.43 1581.34 1336.59 1566.43 1335.93 1547.97C1335.45 1534.6 1334.61 1521.05 1333.73 1506.69C1333.26 1499.15 1332.79 1491.49 1332.36 1483.71C1332.41 1475.86 1332.3 1467.92 1332.02 1460.1C1330.36 1413.9 1323.31 1368.1 1309.15 1311.58C1305.72 1299 1301.73 1286.11 1297.3 1273.28C1284.05 1226 1269.72 1186.96 1252.19 1150.39C1233.39 1108.06 1205.57 1070.77 1173.84 1045.36C1167.46 1040.19 1160.91 1035.37 1154.37 1031.04C1119.28 1006.82 1079.54 998.873 1042.44 1008.64C994.729 1020.89 954.74 1054.42 929.597 1080.39C887.376 1118.65 873.221 1165.92 861.344 1215.05C854.61 1239.69 850.012 1264.63 845.142 1291.03C843.224 1301.42 841.243 1312.17 839.092 1323.07C834.68 1345.9 834.315 1362.03 833.929 1379.09C833.602 1393.54 833.267 1408.46 830.566 1428.91C827.192 1453.42 825.879 1479.56 826.772 1504.54ZM1336.94 1547.93C1337.6 1566.45 1337.44 1581.41 1336.44 1595.02C1336.93 1653.83 1312.93 1703.64 1266.99 1739.01C1236.89 1763.07 1204.78 1773.81 1171.57 1770.94C1140.24 1768.28 1106.15 1752.46 1064.6 1729.52C1031.3 1710.62 1004.1 1696.85 978.983 1686.17C971.237 1682.87 964.199 1680.01 957.471 1677.41C954.573 1676.42 951.736 1675.45 948.972 1674.51C919.518 1664.47 898.236 1657.21 871.667 1638.24C844.872 1619.75 828.136 1571.03 825.76 1504.58C824.864 1479.52 826.182 1453.27 829.569 1428.68C832.255 1408.32 832.592 1393.44 832.918 1379.04C833.306 1361.91 833.671 1345.72 838.111 1322.75C840.257 1311.85 842.239 1301.11 844.155 1290.73C849.031 1264.29 853.636 1239.32 860.381 1214.64C872.302 1165.31 886.526 1117.84 928.972 1079.37C954.182 1053.34 994.315 1019.7 1042.23 1007.39C1079.55 997.564 1119.55 1005.56 1154.84 1029.92C1161.4 1034.26 1167.97 1039.09 1174.37 1044.29C1206.25 1069.81 1234.19 1107.27 1253.06 1149.76C1270.62 1186.39 1284.98 1225.5 1298.25 1272.82C1302.67 1285.64 1306.66 1298.56 1310.12 1311.19C1324.3 1367.84 1331.37 1413.74 1333.03 1460.06C1333.31 1467.91 1333.42 1475.86 1333.38 1483.69C1333.8 1491.41 1334.27 1499.07 1334.74 1506.61C1335.62 1520.98 1336.46 1534.54 1336.94 1547.93Z" fill="#EDE9F7"/>
<path d="M1326.37 1584.01C1326.54 1577.51 1326.49 1570.78 1326.23 1563.37C1325.61 1546.23 1323.93 1528.43 1322.15 1509.59C1321.13 1498.83 1320.07 1487.69 1319.19 1476.28C1319.12 1471.56 1319 1466.81 1318.83 1462.12C1317.18 1415.84 1310.78 1368.63 1298.11 1309.06C1295.17 1296.59 1291.78 1283.95 1288.05 1271.48C1276.66 1223.1 1264.49 1185.86 1248.58 1150.68C1231.5 1109.63 1204.66 1073.74 1172.99 1049.57C1166.78 1044.77 1160.38 1040.3 1153.97 1036.3C1119.67 1013.86 1082.21 1006.93 1045.64 1016.27C998.711 1027.93 960.105 1059.29 935.98 1083.54C893.903 1120.57 881.25 1166.21 870.098 1217.7C864.508 1240.34 860.78 1263.23 856.83 1287.46C854.82 1299.78 852.741 1312.52 850.357 1325.57C846.37 1347.82 846.412 1363.14 846.456 1379.34C846.498 1393.98 846.54 1409.11 843.718 1430.72C840.272 1456 838.94 1483.11 839.871 1509.12C842.156 1573.02 857.331 1619.39 881.503 1636.34C908.454 1655.92 928.537 1662.23 958.938 1671.8L963.898 1673.36C970.441 1675.71 977.255 1678.28 984.75 1681.22C1009.4 1690.9 1035.07 1702.78 1067.99 1719.75C1107.97 1739.73 1140.84 1753.38 1171.3 1755.06C1203.25 1756.9 1233.92 1746.36 1262.48 1723.76C1306.39 1690.3 1328.55 1643.51 1326.58 1588.44C1326.53 1586.97 1326.46 1585.49 1326.37 1584.01ZM1327.24 1563.33C1327.51 1570.77 1327.55 1577.53 1327.38 1584C1327.47 1585.43 1327.54 1586.91 1327.59 1588.4C1329.58 1643.96 1307.26 1691.15 1263.02 1724.85C1234.3 1747.59 1203.43 1758.19 1171.27 1756.34C1140.67 1754.65 1107.71 1740.96 1067.62 1720.93C1034.73 1703.98 1009.08 1692.11 984.462 1682.44C976.974 1679.5 970.169 1676.93 963.648 1674.59L958.703 1673.04C928.221 1663.45 908.082 1657.11 881.015 1637.45C856.529 1620.28 841.163 1573.52 838.861 1509.17C837.927 1483.07 839.262 1455.86 842.723 1430.49C845.529 1408.99 845.486 1393.91 845.446 1379.33C845.402 1363.04 845.36 1347.67 849.372 1325.27C851.754 1312.24 853.83 1299.5 855.839 1287.18C859.795 1262.92 863.533 1240.01 869.13 1217.33C879.917 1167.53 893.101 1119.72 935.372 1082.52C959.556 1058.2 998.306 1026.73 1045.44 1015.02C1082.23 1005.62 1119.91 1012.59 1154.42 1035.16C1160.85 1039.18 1167.27 1043.66 1173.51 1048.48C1205.33 1072.76 1232.31 1108.84 1249.47 1150.08C1265.41 1185.32 1277.61 1222.66 1289.01 1271.08C1292.74 1283.54 1296.13 1296.21 1299.08 1308.72C1311.78 1368.41 1318.18 1415.7 1319.84 1462.08C1320.01 1466.78 1320.13 1471.54 1320.2 1476.22C1321.08 1487.57 1322.13 1498.7 1323.15 1509.46C1324.94 1528.32 1326.62 1546.14 1327.24 1563.33Z" fill="#EDE9F7"/>
<path d="M852.097 1513.73C854.291 1575.06 868.143 1619.19 890.097 1634.81C917.373 1654.89 936.185 1660.25 967.343 1669.12L969.477 1669.73C975.847 1671.82 982.449 1674.09 989.673 1676.67C1013.43 1685.14 1038.39 1695.51 1070.61 1710.27C1103.99 1725.04 1139.24 1738.81 1170.86 1739.54C1201.83 1740.34 1231.35 1729.95 1258.61 1708.68C1299.6 1677.89 1320.33 1635.3 1318.55 1585.53C1318.39 1581.19 1318.07 1576.74 1317.57 1572.31C1317.54 1571.34 1317.51 1570.43 1317.48 1569.52C1316.81 1550.66 1314.15 1530.75 1311.34 1509.68C1309.57 1496.36 1307.73 1482.59 1306.27 1468.19C1304.06 1408.4 1295.43 1352.68 1287.28 1306.05C1284.84 1293.7 1282.06 1281.31 1279 1269.24C1272.73 1236.45 1263.24 1193.38 1245.1 1150.66C1229.85 1111.43 1203.24 1076.06 1172.1 1053.59C1166.05 1049.16 1159.79 1045.06 1153.51 1041.39C1120.43 1021.1 1084.13 1015.01 1048.53 1023.76C1002.26 1034.82 964.947 1063.99 941.798 1086.52C899.807 1122.28 888.121 1168.15 878.124 1220.05C873.502 1240.94 870.519 1262.05 867.36 1284.39C865.389 1298.33 863.35 1312.75 860.827 1327.65C857.218 1349.42 857.647 1364.03 858.1 1379.5C858.531 1394.18 858.979 1409.37 856.052 1431.99C852.543 1457.9 851.138 1486.93 852.097 1513.73ZM1319.56 1585.49C1321.36 1635.76 1300.46 1678.74 1259.14 1709.78C1231.73 1731.17 1202.02 1741.62 1170.85 1740.82C1139.09 1740.08 1103.75 1726.28 1070.29 1711.48C1038.08 1696.72 1013.14 1686.36 989.408 1677.9C982.194 1675.32 975.599 1673.05 969.251 1670.97L967.135 1670.37C935.877 1661.47 917.01 1656.1 889.604 1635.91C867.339 1620.08 853.297 1575.55 851.087 1513.77C850.125 1486.88 851.533 1457.76 855.054 1431.76C857.966 1409.28 857.521 1394.15 857.091 1379.53C856.633 1363.98 856.204 1349.3 859.838 1327.36C862.359 1312.49 864.397 1298.09 866.364 1284.15C869.528 1261.78 872.515 1240.65 877.144 1219.71C887.187 1167.57 898.941 1121.47 941.199 1085.48C964.408 1062.89 1001.86 1033.61 1048.33 1022.52C1084.14 1013.7 1120.66 1019.83 1153.93 1040.23C1160.23 1043.92 1166.52 1048.04 1172.6 1052.49C1203.91 1075.07 1230.67 1110.65 1246 1150.09C1264.18 1192.91 1273.7 1236.09 1279.97 1268.91C1283.03 1280.96 1285.82 1293.38 1288.27 1305.77C1296.43 1352.47 1305.07 1408.26 1307.28 1468.1C1308.73 1482.42 1310.56 1496.18 1312.34 1509.49C1315.29 1531.62 1318.07 1552.47 1318.58 1572.22C1319.07 1576.62 1319.4 1581.11 1319.56 1585.49Z" fill="#EDE9F7"/>
<path d="M865.29 1519.83C866.517 1554.09 872.618 1614.5 899.698 1634.06C927.057 1654.49 944.419 1658.88 975.941 1666.86C982.295 1668.73 988.676 1670.7 995.565 1672.9C1024.53 1682.14 1052.8 1693.09 1074.19 1701.58C1106.29 1713.84 1140.29 1725.14 1171.31 1724.81C1201.32 1724.56 1229.68 1714.33 1255.6 1694.4C1293.94 1666.01 1313.35 1627.2 1311.74 1582.15C1311.5 1575.4 1310.79 1568.42 1309.62 1561.42C1308.26 1544.8 1305.15 1527.36 1301.87 1508.88C1299.15 1493.61 1296.34 1477.81 1294.2 1460.93C1291.11 1411.02 1285.22 1362.06 1277.32 1303.88C1275.39 1291.6 1273.19 1279.47 1270.81 1267.83C1265.7 1232.82 1258.35 1191.66 1242.49 1151.49C1228.78 1113.39 1203.13 1079.5 1172.13 1058.48C1166.22 1054.42 1160.11 1050.67 1153.94 1047.33C1122.14 1029.2 1087.01 1023.94 1052.35 1032.12C1006.74 1042.56 970.752 1069.55 948.595 1090.35C906.626 1124.94 896.297 1169.1 887.152 1223.22C883.375 1242.61 881.05 1262.17 878.588 1282.88C876.769 1298.2 874.886 1314.03 872.313 1330.55C869.756 1347.28 869.766 1359.3 870.108 1368.85C870.252 1372.88 870.469 1376.7 870.702 1380.75C870.932 1384.76 871.173 1388.92 871.327 1393.23C871.664 1402.64 871.748 1415.78 869.398 1434.07C865.742 1461.27 864.285 1491.73 865.29 1519.83ZM1312.75 1582.11C1314.38 1627.65 1294.8 1666.86 1256.12 1695.5C1230.42 1715.26 1201.1 1725.84 1171.33 1726.09C1140.17 1726.42 1106.09 1715.09 1073.9 1702.8C1052.52 1694.31 1024.28 1683.37 995.328 1674.14C988.448 1671.94 982.071 1669.97 975.829 1668.13C944.122 1660.11 926.699 1655.7 899.199 1635.16C871.697 1615.3 865.517 1554.4 864.281 1519.87C863.272 1491.68 864.735 1461.13 868.4 1433.85C870.737 1415.67 870.654 1402.62 870.32 1393.27C870.166 1388.97 869.924 1384.84 869.693 1380.83C869.472 1376.95 869.241 1372.94 869.096 1368.9C868.752 1359.26 868.745 1347.15 871.321 1330.29C873.893 1313.8 875.774 1297.97 877.591 1282.67C880.052 1261.94 882.38 1242.35 886.17 1222.92C895.355 1168.53 905.752 1124.13 948.01 1089.29C970.226 1068.44 1006.36 1041.35 1052.16 1030.86C1087.02 1022.64 1122.36 1027.92 1154.34 1046.17C1160.53 1049.51 1166.67 1053.28 1172.6 1057.36C1203.8 1078.51 1229.6 1112.62 1243.4 1150.95C1259.31 1191.25 1266.68 1232.52 1271.8 1267.57C1274.18 1279.19 1276.37 1291.35 1278.31 1303.66C1286.22 1361.89 1292.11 1410.89 1295.21 1460.79C1297.33 1477.59 1300.14 1493.36 1302.85 1508.62C1306.15 1527.13 1309.26 1544.62 1310.62 1561.24C1311.79 1568.24 1312.51 1575.29 1312.75 1582.11Z" fill="#EDE9F7"/>
<path d="M877.62 1526.35C879.613 1582 890.59 1619.92 908.53 1633.1C935.75 1653.74 952.138 1657.33 981.882 1663.86C988.121 1665.49 994.293 1667.16 1000.77 1668.97C1027.3 1676.38 1053.15 1684.78 1077.14 1692.76C1106.47 1702.08 1140.6 1711.42 1171.23 1709.97C1199.91 1708.69 1227.88 1698.32 1252.13 1679.98C1288.61 1653.36 1306.35 1618.85 1304.87 1577.39C1304.55 1568.61 1303.34 1559.48 1301.26 1550.24C1299.26 1536.3 1295.93 1521.75 1292.41 1506.34C1288.57 1489.58 1284.61 1472.24 1281.71 1453.25C1279.05 1423.8 1276.15 1394.7 1273.08 1363.9C1271.04 1343.48 1268.94 1322.38 1266.91 1301.13C1265.49 1288.84 1263.89 1276.95 1262.17 1265.8C1258.46 1228.82 1253.14 1189.43 1239.4 1151.56C1227.17 1114.49 1202.46 1082.03 1171.61 1062.5C1165.85 1058.8 1159.87 1055.4 1153.83 1052.4C1123.3 1036.4 1089.31 1031.96 1055.54 1039.58C1010.51 1049.43 975.826 1074.25 954.659 1093.34C912.657 1126.85 903.605 1169.34 895.399 1225.72C892.352 1243.79 890.613 1262.02 888.772 1281.31C887.194 1297.83 885.564 1314.92 883.002 1332.9C881.447 1344.02 880.899 1354.06 881.272 1364.49C881.488 1370.5 881.962 1375.96 882.466 1381.74C882.971 1387.52 883.493 1393.5 883.728 1400.08C884.141 1411.62 883.576 1422.94 881.945 1435.71C878.154 1464.2 876.578 1497.23 877.62 1526.35ZM1305.88 1577.35C1307.38 1619.32 1289.47 1654.22 1252.65 1681.08C1228.27 1699.52 1200.12 1709.95 1171.28 1711.24C1140.52 1712.7 1106.31 1703.34 1076.89 1693.99C1052.92 1686.02 1027.08 1677.62 1000.56 1670.21C994.091 1668.4 987.922 1666.73 981.709 1665.11C951.853 1658.57 935.401 1654.96 908.024 1634.2C889.777 1620.79 878.619 1582.5 876.61 1526.39C875.565 1497.19 877.146 1464.06 880.949 1435.49C882.564 1422.81 883.13 1411.57 882.72 1400.12C882.486 1393.59 881.965 1387.62 881.463 1381.86C880.956 1376.06 880.477 1370.58 880.26 1364.53C879.883 1354.01 880.439 1343.88 882.008 1332.66C884.562 1314.71 886.193 1297.65 887.768 1281.15C889.612 1261.82 891.355 1243.57 894.404 1225.45C902.656 1168.78 911.767 1126.04 954.089 1092.28C975.317 1073.13 1010.14 1048.22 1055.35 1038.33C1089.31 1030.67 1123.49 1035.13 1154.2 1051.22C1160.26 1054.23 1166.27 1057.65 1172.05 1061.35C1203.12 1081.03 1228.01 1113.73 1240.33 1151.06C1254.11 1189.07 1259.45 1228.58 1263.17 1265.61C1264.89 1276.74 1266.49 1288.65 1267.92 1300.97C1269.95 1322.24 1272.05 1343.35 1274.08 1363.75C1277.15 1394.56 1280.05 1423.66 1282.71 1453.08C1285.59 1471.96 1289.55 1489.26 1293.37 1505.99C1296.91 1521.44 1300.24 1536.02 1302.25 1549.96C1304.34 1559.24 1305.56 1568.47 1305.88 1577.35Z" fill="#EDE9F7"/>
</svg>
